<svg width="24" height="24" viewBox="0 0 24 24" fill="none" xmlns="http://www.w3.org/2000/svg">
<g id="Frame 1000005924">
<g id="&#240;&#159;&#166;&#134; icon &#34;kakao&#34;">
<path id="Vector" d="M12.2167 3.5C13.8832 3.5 15.4244 3.82403 16.8406 4.47208C18.2567 5.12013 19.3762 6.00135 20.1991 7.11572C21.022 8.2301 21.4335 9.44563 21.4335 10.7623C21.4335 12.079 21.022 13.2962 20.1991 14.414C19.3762 15.5318 18.2584 16.4148 16.8457 17.0628C15.433 17.7109 13.89 18.0349 12.2167 18.0349C11.6887 18.0349 11.1435 17.9972 10.5812 17.9217C8.13985 19.6156 6.84031 20.4728 6.68258 20.4934C6.60715 20.5208 6.53514 20.5174 6.46657 20.4831C6.43914 20.4625 6.41856 20.4351 6.40485 20.4008C6.39113 20.3665 6.38427 20.3357 6.38427 20.3082V20.2671C6.42542 19.9996 6.73745 18.8852 7.32035 16.9239C5.99681 16.2656 4.94587 15.393 4.16752 14.306C3.38917 13.2191 3 12.0378 3 10.7623C3 9.44563 3.41146 8.2301 4.23439 7.11572C5.05731 6.00135 6.17683 5.12013 7.59294 4.47208C9.00906 3.82403 10.5503 3.5 12.2167 3.5Z" fill="black"/>
</g>
</g>
</svg>
